<svg width="25" height="25" viewBox="0 0 25 25" fill="none" xmlns="http://www.w3.org/2000/svg">
<path d="M12.2375 11.875H9.65V7.7375H12.7375C14.3125 7.7375 15.1875 8.4375 15.1875 9.725C15.1875 11.125 14.15 11.875 12.2375 11.875ZM12.7 13.2875H9.65V17.8375H12.85C14.8 17.8375 15.825 17.05 15.825 15.55C15.825 14.05 14.7625 13.2875 12.7 13.2875ZM25 4.1375V20.8625C25 23.125 23.125 25 20.8625 25H4.1375C1.875 25 0 23.125 0 20.8625V4.1375C0 1.875 1.875 0 4.1375 0H20.8625C23.125 0 25 1.875 25 4.1375ZM17.5 15.625C17.5 13.9 16.35 12.6625 14.5875 12.4375V12.3625C15.8375 12.1375 16.825 10.8875 16.825 9.5375C16.825 7.6 15.325 6.3125 13.125 6.3125H8.0375V19.2625H13.0875C15.85 19.2625 17.5 17.9 17.5 15.625Z" fill="#00EED4"/>
</svg>
