<svg width="25" height="25" viewBox="0 0 25 25" fill="none" xmlns="http://www.w3.org/2000/svg">
<path d="M7.51392 0H10.096V1.12292H8.59364V2.24583H10.096V3.36875H7.51392V0ZM10.6119 0H13.195V0.977083H11.6926V1.17188H13.195V3.41771H10.6119V2.39271H12.1143V2.19688H10.6119V0ZM13.7118 0H16.293V0.977083H14.7906V1.17188H16.293V3.41771H13.7118V2.39271H15.2142V2.19688H13.7118V0Z" fill="#00EED4"/>
<path fill-rule="evenodd" clip-rule="evenodd" d="M12.0103 24.9995L5.05516 22.9912L3.00488 4.91309H21.0337L18.9845 22.9891L12.0103 24.9995ZM7.05837 13.0964L7.24967 15.3131H14.6385L14.3911 18.1881L12.0133 18.8568H12.0113L9.6375 18.1902L9.48525 16.4225H7.34483L7.6433 19.9037L12.0103 21.1641L16.3843 19.9037L16.9171 13.6912L16.9692 13.0964L17.3538 8.60788H6.67475L6.86907 10.8256H15.0181L14.8238 13.0964H7.05837Z" fill="#00EED4"/>
</svg>
