<svg width="25" height="25" viewBox="0 0 25 25" fill="none" xmlns="http://www.w3.org/2000/svg">
<path d="M0.741181 10.7362L7.9716 3.49325L10.0857 5.61984C9.78546 6.68314 10.2733 7.84651 11.2491 8.40943V15.3396C10.4985 15.7649 9.99812 16.5781 9.99812 17.5038C9.99812 18.1673 10.2617 18.8037 10.7309 19.2728C11.2001 19.742 11.8365 20.0056 12.5 20.0056C13.1635 20.0056 13.7999 19.742 14.2691 19.2728C14.7383 18.8037 15.0019 18.1673 15.0019 17.5038C15.0019 16.5781 14.5015 15.7649 13.7509 15.3396V9.26007L16.3404 11.8745C16.2528 12.0622 16.2528 12.2748 16.2528 12.5C16.2528 13.1635 16.5164 13.7999 16.9856 14.2691C17.4548 14.7383 18.0912 15.0019 18.7547 15.0019C19.4182 15.0019 20.0546 14.7383 20.5238 14.2691C20.993 13.7999 21.2566 13.1635 21.2566 12.5C21.2566 11.8365 20.993 11.2001 20.5238 10.7309C20.0546 10.2617 19.4182 9.99812 18.7547 9.99812C18.5295 9.99812 18.3169 9.99812 18.1292 10.0857L14.9143 6.87078C15.0696 6.29139 15.0094 5.67532 14.7448 5.13697C14.4803 4.59862 14.0293 4.17458 13.4757 3.94358C12.9378 3.74343 12.3749 3.6934 11.8745 3.831L9.74794 1.71691L10.7362 0.741181C11.7119 -0.24706 13.2881 -0.24706 14.2638 0.741181L24.2588 10.7362C25.2471 11.7119 25.2471 13.2881 24.2588 14.2638L14.2638 24.2588C13.2881 25.2471 11.7119 25.2471 10.7362 24.2588L0.741181 14.2638C-0.24706 13.2881 -0.24706 11.7119 0.741181 10.7362Z" fill="#00EED4"/>
</svg>
