<svg width="25" height="25" viewBox="0 0 25 25" fill="none" xmlns="http://www.w3.org/2000/svg">
<path fill-rule="evenodd" clip-rule="evenodd" d="M7.21963 6.92575C7.39092 8.72887 7.56084 10.5218 7.73467 12.355C8.01807 11.8677 8.22314 11.4004 8.53252 11.0175C8.82061 10.6609 9.18369 10.3318 9.57881 10.1039C10.0946 9.80622 10.771 10.0865 10.9382 10.6144C10.9831 10.756 10.8759 10.9459 10.8384 11.1136C10.7122 11.047 10.5495 11.0103 10.4671 10.9084C10.1169 10.4754 9.90596 10.4242 9.51865 10.7984C8.79619 11.4968 8.38994 12.3718 8.23486 13.3552C8.20498 13.5455 8.32393 13.759 8.37412 13.9617C8.57158 13.8937 8.80088 13.8687 8.96045 13.75C9.4792 13.3638 9.80068 12.8386 9.97803 12.2109C10.0165 12.075 10.2251 11.9873 10.3556 11.8773C10.4181 12.0058 10.5606 12.1572 10.5308 12.259C10.2545 13.2042 9.9591 14.1438 9.64482 15.0771C9.61318 15.1716 9.43955 15.2187 9.33154 15.2879C9.28799 15.1636 9.19639 15.0336 9.21103 14.9166C9.24385 14.6513 9.3292 14.3925 9.38877 14.1496L7.97471 14.8006C8.05381 15.7033 8.13584 16.716 8.23311 17.7273C8.30771 18.4996 8.43408 18.6996 9.19463 18.8461C10.0821 19.017 10.9862 19.1261 11.8884 19.1925C13.217 19.2926 14.5529 19.1669 15.8396 18.8207C16.3224 18.691 16.5149 18.3734 16.5495 17.8994C16.5812 17.4629 16.6519 17.0291 16.7009 16.5937C16.7972 15.7361 16.8907 14.8783 16.9892 13.9847C16.6636 14.191 16.4075 14.4218 16.1081 14.5197C15.8901 14.591 15.6151 14.4867 15.3653 14.4605C15.4132 14.2312 15.4103 13.9728 15.5208 13.7795C15.7009 13.4634 15.9552 13.1894 16.1778 12.8976L16.0819 12.7822C15.9224 12.8765 15.7241 12.9384 15.6106 13.0722C15.3798 13.3445 15.1538 13.6359 14.9993 13.955C14.7407 14.4892 14.5437 15.0531 14.3122 15.6007C14.2116 15.8382 14.1249 16.2015 13.788 16.0629C13.4276 15.9142 13.6812 15.5968 13.7657 15.3711C13.9003 15.0109 14.078 14.6668 14.1983 14.4019C13.8573 14.4425 13.5116 14.4916 13.1644 14.5218C13.0175 14.5343 12.8429 14.4539 12.7228 14.5082C12.3233 14.6886 12.0702 14.6162 11.9872 14.174C11.8022 14.2941 11.6456 14.4568 11.461 14.5006C11.237 14.5539 10.9331 14.5888 10.769 14.4769C10.6376 14.3873 10.5897 14.0504 10.6347 13.8527C10.7239 13.4597 10.8907 13.082 11.0491 12.7084C11.1472 12.4769 11.2458 12.1074 11.5767 12.2683C11.9036 12.4271 11.6067 12.6951 11.5313 12.9101C11.4144 13.2425 11.2952 13.5744 11.1772 13.9064L11.3647 14.0197C11.5433 13.8646 11.7657 13.7382 11.8907 13.548C12.0954 13.2371 12.219 12.8738 12.4128 12.5547C12.4931 12.4224 12.6659 12.3466 12.797 12.2453C12.8235 12.4136 12.8872 12.5867 12.8661 12.7492C12.8452 12.9134 12.7298 13.0636 12.6745 13.2261C12.5915 13.4695 12.5245 13.7183 12.4401 14.0013C12.8392 14.0166 13.0101 13.8486 13.1228 13.5523C13.4794 12.6162 13.8399 11.681 14.2319 10.7593C14.2989 10.6015 14.5267 10.5125 14.6804 10.3914C14.6981 10.5816 14.7829 10.7972 14.7226 10.9576C14.4013 11.807 14.0405 12.6412 13.7015 13.484C13.6442 13.6259 13.6259 13.7836 13.5897 13.934C14.1872 13.6654 14.6858 13.3685 14.8679 12.7336C14.9124 12.5793 15.0948 12.4646 15.2138 12.3316L15.4903 12.6246C15.5743 12.5539 15.6513 12.4734 15.7425 12.4146C16.0296 12.2297 16.3388 12.0666 16.6415 12.3531C16.9548 12.6494 16.7177 12.9381 16.554 13.1943C16.3759 13.4738 16.1577 13.7275 15.9569 13.9924C16.4085 13.7013 17.0251 13.5709 17.1071 12.942C17.3071 11.4058 17.4829 9.86657 17.6612 8.3277C17.7142 7.87223 17.7425 7.41384 17.7837 6.93923C14.2271 7.80036 10.7468 7.80563 7.21963 6.92575ZM8.74619 18.9119C8.91748 19.3644 9.17764 19.809 9.2458 20.2812C9.38975 21.2865 9.42627 22.307 9.52822 23.3191C9.54307 23.4666 9.63857 23.6691 9.75771 23.734C11.5116 24.6871 13.2825 24.8523 15.072 23.8099C15.339 23.6545 15.3884 23.4492 15.4229 23.1605C15.5903 21.758 15.2177 20.2703 16.1144 18.9496C13.6034 19.5724 11.1528 19.5918 8.74619 18.9119ZM14.7991 7.17751C15.6511 7.09528 16.4927 6.89528 17.3353 6.73005C17.494 6.69899 17.6351 6.57809 17.7843 6.4986C17.5876 6.32575 17.4175 6.24255 17.2397 6.22165C16.355 6.11716 15.4671 6.03669 14.5829 5.92712C14.4493 5.91052 14.2108 5.74567 14.2208 5.71559C14.4788 4.93825 14.4661 4.05837 15.0517 3.40329C15.7917 2.57516 16.5394 1.75427 17.2813 0.932976C16.7294 0.339226 16.722 0.338445 16.2218 0.858172C15.939 1.15192 15.6806 1.47341 15.3737 1.73942C14.2384 2.72341 13.4409 3.88884 13.2854 5.42536C13.2497 5.7779 13.0562 5.90524 12.686 5.91071C11.4642 5.92848 10.2409 5.96208 9.02178 6.04235C8.41768 6.082 7.821 6.23708 7.2208 6.33981L7.21533 6.56423C7.59092 6.68005 7.95928 6.83219 8.34287 6.90583C10.4804 7.31559 12.638 7.38591 14.7991 7.17751ZM14.1163 6.64079C13.6325 7.03141 13.2327 7.03141 12.8466 6.64079H14.1163Z" fill="#00EED4"/>
</svg>
