<svg width="25" height="25" viewBox="0 0 25 25" fill="none" xmlns="http://www.w3.org/2000/svg">
<mask id="mask0_1594_386" style="mask-type:luminance" maskUnits="userSpaceOnUse" x="0" y="0" width="25" height="25">
<path d="M0 0H25V25H0V0Z" fill="white"/>
</mask>
<g mask="url(#mask0_1594_386)">
<path d="M5.29175 0H6.41883V1.11354H7.45008V0H8.57716V3.37083H7.45008V2.24271H6.41883V3.37083H5.29279L5.29175 0ZM10.0584 1.11771H9.06675V0H12.1782V1.11771H11.1855V3.37083H10.0584V1.11771ZM12.672 0H13.847L14.5699 1.18437L15.2917 0H16.4667V3.37083H15.3449V1.7L14.5699 2.89896H14.5501L13.774 1.70104V3.37083H12.672V0ZM17.0272 0H18.1553V2.25729H19.7386V3.37187H17.0272V0Z" fill="#00EED4"/>
<path fill-rule="evenodd" clip-rule="evenodd" d="M5.25625 22.9922L3.125 4.91406H21.875L19.7427 22.9901L12.4896 25.0005L5.25625 22.9922ZM9.56562 13.0964L9.36354 10.8255H17.8479L18.0458 8.60885H6.94167L7.53958 15.3141H15.224L14.9667 18.1891L12.4938 18.8578H12.4917L10.0229 18.1911L9.86458 16.4234H7.6375L7.94792 19.9047L12.4896 21.1651L17.0385 19.9047L17.5927 13.6922L17.6469 13.0974L9.56562 13.0964Z" fill="#00EED4"/>
</g>
</svg>
