<svg width="25" height="25" viewBox="0 0 25 25" fill="none" xmlns="http://www.w3.org/2000/svg">
<path d="M19.1406 0H5.85938C2.62333 0 0 2.62333 0 5.85938V19.1406C0 22.3767 2.62333 25 5.85938 25H19.1406C22.3767 25 25 22.3767 25 19.1406V5.85938C25 2.62333 22.3767 0 19.1406 0Z" fill="#12EFDE"/>
<path d="M16.7161 10.5069C15.6871 5.96777 13.5426 4.75937 12.9955 3.90518C12.7698 3.52893 12.5699 3.13776 12.3973 2.73438C12.3684 3.1377 12.3153 3.3916 11.9725 3.69746C11.2844 4.31104 8.36151 6.69287 8.11551 11.8504C7.88631 16.6592 11.6507 19.6243 12.1479 19.9309C12.5304 20.119 12.9961 19.9349 13.2233 19.7621C15.0379 18.5168 17.5172 15.1967 16.7181 10.5069" fill="#0E162C"/>
<path d="M12.5531 17.3711C12.4584 18.5613 12.3905 19.2529 12.1499 19.9331C12.1499 19.9331 12.3078 21.0662 12.4187 22.2665H12.8112C12.905 21.4213 13.0479 20.5822 13.2394 19.7536C12.7313 19.5036 12.5727 18.4155 12.5531 17.3711Z" fill="#0E162C"/>
<path d="M13.2387 19.7538C12.7252 19.5166 12.5767 18.4056 12.5539 17.3706C12.6808 15.6633 12.7178 13.9505 12.6648 12.2393C12.6378 11.3414 12.6775 3.92305 12.4436 2.83691C12.6035 3.20482 12.7879 3.56161 12.9955 3.90488C13.5425 4.75977 15.6877 5.96816 16.7161 10.5073C17.5171 15.1891 15.0513 18.5004 13.2387 19.7538Z" fill="#0E162C"/>
</svg>
