<svg width="25" height="25" viewBox="0 0 25 25" fill="none" xmlns="http://www.w3.org/2000/svg">
<mask id="mask0_1596_398" style="mask-type:luminance" maskUnits="userSpaceOnUse" x="0" y="0" width="25" height="25">
<path d="M0 0H25V25H0V0Z" fill="white"/>
</mask>
<g mask="url(#mask0_1596_398)">
<path d="M11.6812 0.00638021C11.6271 0.0115885 11.4562 0.0292969 11.3021 0.0407552C7.75208 0.361589 4.42708 2.27721 2.31875 5.222C1.1552 6.83878 0.398423 8.71215 0.1125 10.6835C0.0125 11.371 0 11.573 0 12.5043C0 13.4355 0.0125 13.6387 0.1125 14.3251C0.791667 19.0199 4.13333 22.9637 8.66354 24.4251C9.475 24.6866 10.3302 24.8647 11.3021 24.973C11.6812 25.0147 13.3187 25.0147 13.6979 24.973C15.376 24.7866 16.799 24.371 18.201 23.6553C18.4167 23.546 18.4583 23.5158 18.4292 23.4918C17.7433 22.5873 17.0645 21.6776 16.3927 20.7626L14.3937 18.0616L11.8896 14.3543C11.0564 13.1143 10.2154 11.8796 9.36667 10.6501C9.35729 10.647 9.34792 12.2939 9.34271 14.3064C9.33542 17.8272 9.33229 17.9689 9.28854 18.0522C9.24556 18.1493 9.16951 18.2279 9.07396 18.2741C8.99583 18.3137 8.92812 18.321 8.55833 18.321H8.13542L8.02292 18.2501C7.9533 18.2062 7.89681 18.1443 7.85937 18.071L7.80729 17.9616L7.8125 13.0616L7.81979 8.15951L7.89583 8.06367C7.94631 8.00302 8.00781 7.95248 8.07708 7.91471C8.17708 7.86575 8.21562 7.86159 8.63958 7.86159C9.1375 7.86159 9.22083 7.88034 9.35 8.02201C9.38646 8.06159 10.7427 10.1053 12.3656 12.5658L17.2969 20.0366L19.276 23.0345L19.3771 22.9689C20.3297 22.3358 21.1933 21.578 21.9448 20.7158C23.5198 18.9128 24.5415 16.694 24.8875 14.3251C24.9875 13.6376 25 13.4355 25 12.5043C25 11.573 24.9875 11.371 24.8875 10.6835C24.2083 5.98971 20.8667 2.04492 16.3365 0.583464C15.4898 0.314265 14.6179 0.131732 13.7344 0.0386719C13.499 0.0136719 11.8844 -0.0134115 11.6823 0.00742187M16.8 7.56992C16.8582 7.59903 16.91 7.63945 16.9524 7.68882C16.9948 7.73818 17.0269 7.7955 17.0469 7.85742C17.0656 7.91992 17.0708 9.2793 17.0656 12.3418L17.0583 16.7355L16.2844 15.548L15.5073 14.3605V11.1668C15.5073 9.10117 15.5167 7.94075 15.5312 7.8845C15.5487 7.81949 15.5791 7.75867 15.6206 7.70568C15.6622 7.6527 15.714 7.60865 15.7729 7.57617C15.874 7.52409 15.9104 7.51992 16.2937 7.51992C16.6552 7.51992 16.7187 7.52513 16.8 7.56888" fill="#00EED4"/>
</g>
</svg>
