<svg width="25" height="25" viewBox="0 0 25 25" fill="none" xmlns="http://www.w3.org/2000/svg">
<path d="M13.6671 0.277412C13.3133 0.0957752 12.9104 0 12.5 0C12.0896 0 11.6867 0.0957752 11.3329 0.277412L1.13553 5.51435C0.789682 5.69192 0.502969 5.94531 0.303795 6.24942C0.104621 6.55352 -0.000102482 6.8978 7.52546e-08 7.24812V17.7519C7.52546e-08 18.4642 0.431579 19.1237 1.13553 19.4845L4.58684 21.2573C6.34079 22.1604 8.55263 21.0551 8.55263 19.2788V7.61349H5.92105V19.2777L2.63158 17.5876V7.41243L12.5 2.34323L22.3684 7.41243V17.5876L12.5 22.6568L10.1737 21.4619L8.83947 23.4415L11.3329 24.7226C11.6867 24.9042 12.0896 25 12.5 25C12.9104 25 13.3133 24.9042 13.6671 24.7226L23.8645 19.4845C24.2101 19.307 24.4967 19.0538 24.6959 18.7499C24.895 18.446 24.9999 18.102 25 17.7519V7.24812C24.9999 6.89799 24.895 6.55396 24.6959 6.25007C24.4967 5.94618 24.2101 5.69297 23.8645 5.5155L13.6671 0.277412ZM15.1316 7.3297C13.3382 7.3297 12.0671 7.73298 11.25 8.44419C10.633 8.98006 10.2843 9.7076 10.2803 10.4675C10.2803 11.1052 10.4868 11.6831 10.9145 12.1611C11.3263 12.6206 11.8684 12.9067 12.3882 13.0917C13.3355 13.433 14.5197 13.5444 15.4724 13.6329L15.5868 13.6444C16.6803 13.7478 17.5 13.8362 18.0605 14.0407C18.3145 14.1327 18.4184 14.2177 18.4618 14.2671C18.4895 14.2993 18.5434 14.3705 18.5434 14.5658C18.5434 14.8691 18.425 15.0645 18.0526 15.2494C17.5961 15.4758 16.7895 15.6481 15.575 15.6481C14.3711 15.6481 13.5316 15.4528 13.0513 15.1633C12.6789 14.9381 12.4039 14.5922 12.4763 13.842L9.85395 13.6501C9.71184 15.1311 10.3263 16.3111 11.5539 17.0533C12.6737 17.7312 14.1461 17.946 15.575 17.946C16.9921 17.946 18.3276 17.7565 19.3553 17.2452C20.4684 16.6937 21.175 15.7722 21.175 14.5658C21.175 13.9259 20.9711 13.3468 20.5474 12.8654C20.1395 12.4012 19.5974 12.1117 19.0763 11.9209C18.1184 11.5705 16.9184 11.4579 15.9605 11.3683L15.8684 11.3591C14.7724 11.2557 13.9526 11.1695 13.3882 10.9673C13.1329 10.8754 13.0289 10.7927 12.9895 10.7467C12.9632 10.7191 12.9118 10.6548 12.9118 10.4675C12.9118 10.379 12.9421 10.2159 13.1092 10.0711C13.2697 9.93093 13.7658 9.62761 15.1316 9.62761C16.4342 9.62761 17.1934 9.74825 17.6276 9.9723C17.9105 10.1194 18.2171 10.3894 18.2592 11.2741L20.8882 11.1821C20.8224 9.75055 20.2224 8.64525 18.9697 7.99724C17.8684 7.42506 16.4605 7.3297 15.1316 7.3297Z" fill="#00EED4"/>
</svg>
