<svg width="27" height="27" viewBox="0 0 27 27" fill="none" xmlns="http://www.w3.org/2000/svg">
<path d="M7.94434 13.5C7.94434 6.59625 10.4305 1 13.5001 1C16.5696 1 19.0558 6.59625 19.0558 13.5C19.0558 20.4037 16.5696 26 13.5001 26C10.4305 26 7.94434 20.4037 7.94434 13.5Z" stroke="#00EED4" stroke-width="1.5" stroke-linecap="round" stroke-linejoin="round"/>
<path d="M10.6874 9.27504C17.4126 5.82254 24.1239 4.96254 25.6768 7.35379C27.2296 9.74504 23.0378 14.4825 16.3126 17.9338C9.58737 21.385 2.87605 22.2463 1.32322 19.8538C-0.229605 17.4625 3.9622 12.7275 10.6874 9.27504Z" stroke="#00EED4" stroke-width="1.5" stroke-linecap="round" stroke-linejoin="round"/>
<path d="M16.3126 9.27504C23.0378 12.725 27.2296 17.4625 25.6768 19.8538C24.1239 22.2463 17.4126 21.3863 10.6874 17.9338C3.9622 14.4813 -0.229605 9.74629 1.32322 7.35379C2.87466 4.96254 9.58737 5.82254 16.3126 9.27504Z" stroke="#00EED4" stroke-width="1.5" stroke-linecap="round" stroke-linejoin="round"/>
<path d="M15.5835 13.5C15.5835 13.9973 15.364 14.4742 14.9733 14.8258C14.5826 15.1775 14.0527 15.375 13.5001 15.375C12.9476 15.375 12.4177 15.1775 12.027 14.8258C11.6362 14.4742 11.4167 13.9973 11.4167 13.5C11.4167 13.0027 11.6362 12.5258 12.027 12.1742C12.4177 11.8225 12.9476 11.625 13.5001 11.625C14.0527 11.625 14.5826 11.8225 14.9733 12.1742C15.364 12.5258 15.5835 13.0027 15.5835 13.5Z" stroke="#00EED4" stroke-width="1.5" stroke-linecap="round" stroke-linejoin="round"/>
</svg>
