<svg width="25" height="25" viewBox="0 0 25 25" fill="none" xmlns="http://www.w3.org/2000/svg">
<mask id="mask0_1594_371" style="mask-type:luminance" maskUnits="userSpaceOnUse" x="0" y="0" width="25" height="25">
<path d="M0 0H25V25H0V0Z" fill="white"/>
</mask>
<g mask="url(#mask0_1594_371)">
<path d="M12.5 0C19.375 0 25 5.625 25 12.5C25 19.375 19.375 25 12.5 25C5.625 25 0 19.375 0 12.5C0 5.625 5.625 0 12.5 0ZM10 16.6406C10.1563 17.3434 10.1563 17.9684 10 18.5156L9.92187 18.75C9.92187 18.8281 9.84375 18.9062 9.84375 18.9062C9.6875 19.2187 9.53125 19.4531 9.29687 19.7656C8.59375 20.5469 7.57812 20.8594 7.10937 20.625C6.64062 20.3906 6.875 19.2187 7.73437 18.3594C8.67187 17.4219 9.92187 16.7969 9.92187 16.7969L10 16.6406ZM20.3125 5.3125C19.7656 3.125 16.0937 2.34375 12.5781 3.59375C10.5469 4.375 8.28125 5.54687 6.64062 7.03125C4.6875 8.82812 4.45312 10.3906 4.53125 11.0156C5 13.2812 8.125 14.8437 9.45312 15.9375C9.0625 16.0937 6.25 17.5 5.625 18.9844C4.92187 20.5469 5.70312 21.6406 6.25 21.7187C7.89062 22.1875 9.60937 21.3281 10.4687 20C11.3281 18.6719 11.25 17.0312 10.8594 16.1719C11.4671 15.9841 12.1131 15.9572 12.7344 16.0937C14.9219 16.3281 15.3906 17.7344 15.2344 18.2812C15.0781 18.8281 14.6875 19.1406 14.5312 19.2969C14.375 19.375 14.2969 19.4531 14.375 19.4531C14.375 19.5312 14.4531 19.5312 14.6094 19.5312C14.7656 19.5312 15.7812 19.0625 15.7812 17.9687C15.8594 16.6406 14.5312 15.1562 12.2656 15.1562C11.3281 15.1562 10.7031 15.2344 10.3125 15.3906C10.3125 15.3125 10.2344 15.3125 10.2344 15.3125C8.82812 13.8281 6.25 12.7344 6.32812 10.7031C6.32812 10 6.64062 8.04687 11.3281 5.70312C15.1562 3.75 18.2813 4.29687 18.8281 5.46875C19.6094 7.10937 17.1875 10.2344 13.2031 10.7031C11.6406 10.8594 10.8594 10.3125 10.7031 10.0781C10.4687 9.84375 10.4688 9.84375 10.3906 9.84375C10.2344 9.92187 10.3125 10.0781 10.3906 10.2344C10.5469 10.5469 11.0156 11.0937 11.875 11.4062C12.5781 11.6406 14.375 11.7969 16.5625 10.9375C18.9844 10 20.8594 7.42187 20.3125 5.23437V5.3125Z" fill="#00EED4"/>
</g>
</svg>
