<svg width="25" height="25" viewBox="0 0 25 25" fill="none" xmlns="http://www.w3.org/2000/svg">
<path d="M19.1406 0H5.85938C2.62333 0 0 2.62333 0 5.85938V19.1406C0 22.3767 2.62333 25 5.85938 25H19.1406C22.3767 25 25 22.3767 25 19.1406V5.85938C25 2.62333 22.3767 0 19.1406 0Z" fill="#00EED4"/>
<path fill-rule="evenodd" clip-rule="evenodd" d="M8.10547 10.7422C8.69141 8.39844 10.1562 7.22656 12.5 7.22656C16.0156 7.22656 16.4551 9.86328 18.2129 10.3027C19.3848 10.5958 20.4102 10.1564 21.2891 8.98438C20.7031 11.3281 19.2383 12.5 16.8945 12.5C13.3789 12.5 12.9395 9.86328 11.1816 9.42383C10.0098 9.13086 8.98438 9.57031 8.10547 10.7422ZM3.71094 16.0156C4.29688 13.6719 5.76172 12.5 8.10547 12.5C11.6211 12.5 12.0605 15.1367 13.8184 15.5762C14.9902 15.8693 16.0156 15.4298 16.8945 14.2578C16.3086 16.6016 14.8438 17.7734 12.5 17.7734C8.98438 17.7734 8.54492 15.1367 6.78711 14.6973C5.61523 14.4042 4.58984 14.8436 3.71094 16.0156Z" fill="url(#paint0_linear_1597_411)"/>
<defs>
<linearGradient id="paint0_linear_1597_411" x1="8.44727" y1="7.22656" x2="15.9668" y2="18.1152" gradientUnits="userSpaceOnUse">
<stop stop-color="#08525B"/>
<stop offset="1" stop-color="#14C6B7"/>
</linearGradient>
</defs>
</svg>
