<svg width="25" height="25" viewBox="0 0 25 25" fill="none" xmlns="http://www.w3.org/2000/svg">
<path d="M12.5 0C10.0277 0 7.61099 0.733112 5.55538 2.10663C3.49976 3.48015 1.89761 5.43238 0.951511 7.71646C0.00541607 10.0005 -0.242126 12.5139 0.24019 14.9386C0.722505 17.3634 1.91301 19.5907 3.66117 21.3388C5.40933 23.087 7.63661 24.2775 10.0614 24.7598C12.4861 25.2421 14.9995 24.9946 17.2835 24.0485C19.5676 23.1024 21.5199 21.5002 22.8934 19.4446C24.2669 17.389 25 14.9723 25 12.5C24.9963 9.18592 23.6782 6.00863 21.3348 3.66522C18.9914 1.32182 15.8141 0.00367618 12.5 0ZM12.5 22.2222C10.5771 22.2222 8.69744 21.652 7.09863 20.5837C5.49982 19.5154 4.25369 17.997 3.51784 16.2205C2.78199 14.444 2.58946 12.4892 2.96459 10.6033C3.33973 8.71736 4.26568 6.98503 5.62535 5.62535C6.98503 4.26567 8.71737 3.33972 10.6033 2.96459C12.4892 2.58945 14.444 2.78199 16.2205 3.51784C17.997 4.25369 19.5154 5.49981 20.5837 7.09862C21.652 8.69743 22.2222 10.5771 22.2222 12.5C22.2195 15.0776 21.1943 17.5489 19.3716 19.3716C17.5489 21.1943 15.0776 22.2195 12.5 22.2222ZM17.5926 7.87037V17.1296C17.5926 17.498 17.4463 17.8513 17.1858 18.1117C16.9253 18.3722 16.5721 18.5185 16.2037 18.5185C15.8353 18.5185 15.4821 18.3722 15.2216 18.1117C14.9611 17.8513 14.8148 17.498 14.8148 17.1296V13.8889H10.1852V17.1296C10.1852 17.498 10.0389 17.8513 9.77839 18.1117C9.51793 18.3722 9.16466 18.5185 8.7963 18.5185C8.42794 18.5185 8.07467 18.3722 7.81421 18.1117C7.55374 17.8513 7.40741 17.498 7.40741 17.1296V7.87037C7.40741 7.50201 7.55374 7.14874 7.81421 6.88828C8.07467 6.62781 8.42794 6.48148 8.7963 6.48148C9.16466 6.48148 9.51793 6.62781 9.77839 6.88828C10.0389 7.14874 10.1852 7.50201 10.1852 7.87037V11.1111H14.8148V7.87037C14.8148 7.50201 14.9611 7.14874 15.2216 6.88828C15.4821 6.62781 15.8353 6.48148 16.2037 6.48148C16.5721 6.48148 16.9253 6.62781 17.1858 6.88828C17.4463 7.14874 17.5926 7.50201 17.5926 7.87037Z" fill="#00EED4"/>
</svg>
