<svg id="visual" viewBox="0 0 900 600" width="900" height="600" xmlns="http://www.w3.org/2000/svg" xmlns:xlink="http://www.w3.org/1999/xlink" version="1.1"><rect x="0" y="0" width="900" height="600" fill="#001220"></rect><path d="M0 399L18.8 412C37.7 425 75.3 451 112.8 454.5C150.3 458 187.7 439 225.2 427.7C262.7 416.3 300.3 412.7 337.8 407.8C375.3 403 412.7 397 450.2 389.3C487.7 381.7 525.3 372.3 562.8 385.2C600.3 398 637.7 433 675.2 443.5C712.7 454 750.3 440 787.8 434C825.3 428 862.7 430 881.3 431L900 432L900 601L881.3 601C862.7 601 825.3 601 787.8 601C750.3 601 712.7 601 675.2 601C637.7 601 600.3 601 562.8 601C525.3 601 487.7 601 450.2 601C412.7 601 375.3 601 337.8 601C300.3 601 262.7 601 225.2 601C187.7 601 150.3 601 112.8 601C75.3 601 37.7 601 18.8 601L0 601Z" fill="#4fc1b0"></path><path d="M0 432L18.8 437.2C37.7 442.3 75.3 452.7 112.8 448.3C150.3 444 187.7 425 225.2 418.5C262.7 412 300.3 418 337.8 419.5C375.3 421 412.7 418 450.2 423.8C487.7 429.7 525.3 444.3 562.8 454C600.3 463.7 637.7 468.3 675.2 457.5C712.7 446.7 750.3 420.3 787.8 417.7C825.3 415 862.7 436 881.3 446.5L900 457L900 601L881.3 601C862.7 601 825.3 601 787.8 601C750.3 601 712.7 601 675.2 601C637.7 601 600.3 601 562.8 601C525.3 601 487.7 601 450.2 601C412.7 601 375.3 601 337.8 601C300.3 601 262.7 601 225.2 601C187.7 601 150.3 601 112.8 601C75.3 601 37.7 601 18.8 601L0 601Z" fill="#3baea6"></path><path d="M0 400L18.8 406.7C37.7 413.3 75.3 426.7 112.8 424.7C150.3 422.7 187.7 405.3 225.2 399C262.7 392.7 300.3 397.3 337.8 400.2C375.3 403 412.7 404 450.2 405.2C487.7 406.3 525.3 407.7 562.8 402.2C600.3 396.7 637.7 384.3 675.2 381.2C712.7 378 750.3 384 787.8 395.2C825.3 406.3 862.7 422.7 881.3 430.8L900 439L900 601L881.3 601C862.7 601 825.3 601 787.8 601C750.3 601 712.7 601 675.2 601C637.7 601 600.3 601 562.8 601C525.3 601 487.7 601 450.2 601C412.7 601 375.3 601 337.8 601C300.3 601 262.7 601 225.2 601C187.7 601 150.3 601 112.8 601C75.3 601 37.7 601 18.8 601L0 601Z" fill="#299b9c"></path><path d="M0 454L18.8 446.2C37.7 438.3 75.3 422.7 112.8 429.5C150.3 436.3 187.7 465.7 225.2 472.7C262.7 479.7 300.3 464.3 337.8 454.2C375.3 444 412.7 439 450.2 450C487.7 461 525.3 488 562.8 500.3C600.3 512.7 637.7 510.3 675.2 495.2C712.7 480 750.3 452 787.8 451.5C825.3 451 862.7 478 881.3 491.5L900 505L900 601L881.3 601C862.7 601 825.3 601 787.8 601C750.3 601 712.7 601 675.2 601C637.7 601 600.3 601 562.8 601C525.3 601 487.7 601 450.2 601C412.7 601 375.3 601 337.8 601C300.3 601 262.7 601 225.2 601C187.7 601 150.3 601 112.8 601C75.3 601 37.7 601 18.8 601L0 601Z" fill="#1a888f"></path><path d="M0 480L18.8 476C37.7 472 75.3 464 112.8 470.2C150.3 476.3 187.7 496.7 225.2 493.3C262.7 490 300.3 463 337.8 451.3C375.3 439.7 412.7 443.3 450.2 452.5C487.7 461.7 525.3 476.3 562.8 481.2C600.3 486 637.7 481 675.2 481C712.7 481 750.3 486 787.8 482.8C825.3 479.7 862.7 468.3 881.3 462.7L900 457L900 601L881.3 601C862.7 601 825.3 601 787.8 601C750.3 601 712.7 601 675.2 601C637.7 601 600.3 601 562.8 601C525.3 601 487.7 601 450.2 601C412.7 601 375.3 601 337.8 601C300.3 601 262.7 601 225.2 601C187.7 601 150.3 601 112.8 601C75.3 601 37.7 601 18.8 601L0 601Z" fill="#0e7582"></path><path d="M0 533L18.8 521.8C37.7 510.7 75.3 488.3 112.8 474.8C150.3 461.3 187.7 456.7 225.2 459.3C262.7 462 300.3 472 337.8 483C375.3 494 412.7 506 450.2 505C487.7 504 525.3 490 562.8 482.3C600.3 474.7 637.7 473.3 675.2 475.8C712.7 478.3 750.3 484.7 787.8 493.7C825.3 502.7 862.7 514.3 881.3 520.2L900 526L900 601L881.3 601C862.7 601 825.3 601 787.8 601C750.3 601 712.7 601 675.2 601C637.7 601 600.3 601 562.8 601C525.3 601 487.7 601 450.2 601C412.7 601 375.3 601 337.8 601C300.3 601 262.7 601 225.2 601C187.7 601 150.3 601 112.8 601C75.3 601 37.7 601 18.8 601L0 601Z" fill="#076373"></path><path d="M0 525L18.8 514.8C37.7 504.7 75.3 484.3 112.8 477.8C150.3 471.3 187.7 478.7 225.2 489.3C262.7 500 300.3 514 337.8 513.2C375.3 512.3 412.7 496.7 450.2 486.8C487.7 477 525.3 473 562.8 472.8C600.3 472.7 637.7 476.3 675.2 477.8C712.7 479.3 750.3 478.7 787.8 482.3C825.3 486 862.7 494 881.3 498L900 502L900 601L881.3 601C862.7 601 825.3 601 787.8 601C750.3 601 712.7 601 675.2 601C637.7 601 600.3 601 562.8 601C525.3 601 487.7 601 450.2 601C412.7 601 375.3 601 337.8 601C300.3 601 262.7 601 225.2 601C187.7 601 150.3 601 112.8 601C75.3 601 37.7 601 18.8 601L0 601Z" fill="#065163"></path><path d="M0 526L18.8 520.7C37.7 515.3 75.3 504.7 112.8 509C150.3 513.3 187.7 532.7 225.2 532.3C262.7 532 300.3 512 337.8 505.7C375.3 499.3 412.7 506.7 450.2 506.3C487.7 506 525.3 498 562.8 494.3C600.3 490.7 637.7 491.3 675.2 496.5C712.7 501.7 750.3 511.3 787.8 510C825.3 508.7 862.7 496.3 881.3 490.2L900 484L900 601L881.3 601C862.7 601 825.3 601 787.8 601C750.3 601 712.7 601 675.2 601C637.7 601 600.3 601 562.8 601C525.3 601 487.7 601 450.2 601C412.7 601 375.3 601 337.8 601C300.3 601 262.7 601 225.2 601C187.7 601 150.3 601 112.8 601C75.3 601 37.7 601 18.8 601L0 601Z" fill="#064053"></path><path d="M0 525L18.8 525.2C37.7 525.3 75.3 525.7 112.8 525.8C150.3 526 187.7 526 225.2 532.2C262.7 538.3 300.3 550.7 337.8 551.3C375.3 552 412.7 541 450.2 534.7C487.7 528.3 525.3 526.7 562.8 527.7C600.3 528.7 637.7 532.3 675.2 538.5C712.7 544.7 750.3 553.3 787.8 556.8C825.3 560.3 862.7 558.7 881.3 557.8L900 557L900 601L881.3 601C862.7 601 825.3 601 787.8 601C750.3 601 712.7 601 675.2 601C637.7 601 600.3 601 562.8 601C525.3 601 487.7 601 450.2 601C412.7 601 375.3 601 337.8 601C300.3 601 262.7 601 225.2 601C187.7 601 150.3 601 112.8 601C75.3 601 37.7 601 18.8 601L0 601Z" fill="#063042"></path><path d="M0 558L18.8 559.3C37.7 560.7 75.3 563.3 112.8 565.2C150.3 567 187.7 568 225.2 565.8C262.7 563.7 300.3 558.3 337.8 556.7C375.3 555 412.7 557 450.2 560.5C487.7 564 525.3 569 562.8 565.8C600.3 562.7 637.7 551.3 675.2 544.3C712.7 537.3 750.3 534.7 787.8 537.2C825.3 539.7 862.7 547.3 881.3 551.2L900 555L900 601L881.3 601C862.7 601 825.3 601 787.8 601C750.3 601 712.7 601 675.2 601C637.7 601 600.3 601 562.8 601C525.3 601 487.7 601 450.2 601C412.7 601 375.3 601 337.8 601C300.3 601 262.7 601 225.2 601C187.7 601 150.3 601 112.8 601C75.3 601 37.7 601 18.8 601L0 601Z" fill="#052131"></path><path d="M0 559L18.8 562.7C37.7 566.3 75.3 573.7 112.8 574.8C150.3 576 187.7 571 225.2 567.7C262.7 564.3 300.3 562.7 337.8 562.8C375.3 563 412.7 565 450.2 564.8C487.7 564.7 525.3 562.3 562.8 563.7C600.3 565 637.7 570 675.2 569.5C712.7 569 750.3 563 787.8 561.7C825.3 560.3 862.7 563.7 881.3 565.3L900 567L900 601L881.3 601C862.7 601 825.3 601 787.8 601C750.3 601 712.7 601 675.2 601C637.7 601 600.3 601 562.8 601C525.3 601 487.7 601 450.2 601C412.7 601 375.3 601 337.8 601C300.3 601 262.7 601 225.2 601C187.7 601 150.3 601 112.8 601C75.3 601 37.7 601 18.8 601L0 601Z" fill="#001220"></path></svg>