<svg id="visual" viewBox="0 0 900 600" width="900" height="600" xmlns="http://www.w3.org/2000/svg" xmlns:xlink="http://www.w3.org/1999/xlink" version="1.1"><rect x="0" y="0" width="900" height="600" fill="#10152b"></rect><path d="M0 289L13.7 288.2C27.3 287.3 54.7 285.7 82 269.8C109.3 254 136.7 224 163.8 231C191 238 218 282 245.2 300.3C272.3 318.7 299.7 311.3 327 306C354.3 300.7 381.7 297.3 409 297.3C436.3 297.3 463.7 300.7 491 300.2C518.3 299.7 545.7 295.3 573 282C600.3 268.7 627.7 246.3 654.8 231.5C682 216.7 709 209.3 736.2 203.8C763.3 198.3 790.7 194.7 818 192.8C845.3 191 872.7 191 886.3 191L900 191L900 601L886.3 601C872.7 601 845.3 601 818 601C790.7 601 763.3 601 736.2 601C709 601 682 601 654.8 601C627.7 601 600.3 601 573 601C545.7 601 518.3 601 491 601C463.7 601 436.3 601 409 601C381.7 601 354.3 601 327 601C299.7 601 272.3 601 245.2 601C218 601 191 601 163.8 601C136.7 601 109.3 601 82 601C54.7 601 27.3 601 13.7 601L0 601Z" fill="#0e162c"></path><path d="M0 271L13.7 273.3C27.3 275.7 54.7 280.3 82 285.5C109.3 290.7 136.7 296.3 163.8 305.2C191 314 218 326 245.2 326.5C272.3 327 299.7 316 327 310C354.3 304 381.7 303 409 298.2C436.3 293.3 463.7 284.7 491 288C518.3 291.3 545.7 306.7 573 306.2C600.3 305.7 627.7 289.3 654.8 287.5C682 285.7 709 298.3 736.2 304.5C763.3 310.7 790.7 310.3 818 301.7C845.3 293 872.7 276 886.3 267.5L900 259L900 601L886.3 601C872.7 601 845.3 601 818 601C790.7 601 763.3 601 736.2 601C709 601 682 601 654.8 601C627.7 601 600.3 601 573 601C545.7 601 518.3 601 491 601C463.7 601 436.3 601 409 601C381.7 601 354.3 601 327 601C299.7 601 272.3 601 245.2 601C218 601 191 601 163.8 601C136.7 601 109.3 601 82 601C54.7 601 27.3 601 13.7 601L0 601Z" fill="#152c48"></path><path d="M0 387L13.7 377.8C27.3 368.7 54.7 350.3 82 343.3C109.3 336.3 136.7 340.7 163.8 335.7C191 330.7 218 316.3 245.2 319.2C272.3 322 299.7 342 327 343.7C354.3 345.3 381.7 328.7 409 321.7C436.3 314.7 463.7 317.3 491 315.7C518.3 314 545.7 308 573 313.3C600.3 318.7 627.7 335.3 654.8 334.8C682 334.3 709 316.7 736.2 322C763.3 327.3 790.7 355.7 818 351.7C845.3 347.7 872.7 311.3 886.3 293.2L900 275L900 601L886.3 601C872.7 601 845.3 601 818 601C790.7 601 763.3 601 736.2 601C709 601 682 601 654.8 601C627.7 601 600.3 601 573 601C545.7 601 518.3 601 491 601C463.7 601 436.3 601 409 601C381.7 601 354.3 601 327 601C299.7 601 272.3 601 245.2 601C218 601 191 601 163.8 601C136.7 601 109.3 601 82 601C54.7 601 27.3 601 13.7 601L0 601Z" fill="#184465"></path><path d="M0 383L13.7 379.7C27.3 376.3 54.7 369.7 82 367.3C109.3 365 136.7 367 163.8 362.7C191 358.3 218 347.7 245.2 342.7C272.3 337.7 299.7 338.3 327 346.2C354.3 354 381.7 369 409 381.7C436.3 394.3 463.7 404.7 491 407.7C518.3 410.7 545.7 406.3 573 403.5C600.3 400.7 627.7 399.3 654.8 395.8C682 392.3 709 386.7 736.2 374C763.3 361.3 790.7 341.7 818 340.5C845.3 339.3 872.7 356.7 886.3 365.3L900 374L900 601L886.3 601C872.7 601 845.3 601 818 601C790.7 601 763.3 601 736.2 601C709 601 682 601 654.8 601C627.7 601 600.3 601 573 601C545.7 601 518.3 601 491 601C463.7 601 436.3 601 409 601C381.7 601 354.3 601 327 601C299.7 601 272.3 601 245.2 601C218 601 191 601 163.8 601C136.7 601 109.3 601 82 601C54.7 601 27.3 601 13.7 601L0 601Z" fill="#125e81"></path><path d="M0 427L13.7 424.3C27.3 421.7 54.7 416.3 82 407.7C109.3 399 136.7 387 163.8 393.5C191 400 218 425 245.2 435.7C272.3 446.3 299.7 442.7 327 441C354.3 439.3 381.7 439.7 409 427.7C436.3 415.7 463.7 391.3 491 383.2C518.3 375 545.7 383 573 388.3C600.3 393.7 627.7 396.3 654.8 395C682 393.7 709 388.3 736.2 388.3C763.3 388.3 790.7 393.7 818 402.7C845.3 411.7 872.7 424.3 886.3 430.7L900 437L900 601L886.3 601C872.7 601 845.3 601 818 601C790.7 601 763.3 601 736.2 601C709 601 682 601 654.8 601C627.7 601 600.3 601 573 601C545.7 601 518.3 601 491 601C463.7 601 436.3 601 409 601C381.7 601 354.3 601 327 601C299.7 601 272.3 601 245.2 601C218 601 191 601 163.8 601C136.7 601 109.3 601 82 601C54.7 601 27.3 601 13.7 601L0 601Z" fill="#00799c"></path><path d="M0 418L13.7 428.3C27.3 438.7 54.7 459.3 82 466.5C109.3 473.7 136.7 467.3 163.8 456.8C191 446.3 218 431.7 245.2 434.8C272.3 438 299.7 459 327 469.2C354.3 479.3 381.7 478.7 409 477C436.3 475.3 463.7 472.7 491 469.5C518.3 466.3 545.7 462.7 573 458.5C600.3 454.3 627.7 449.7 654.8 441C682 432.3 709 419.7 736.2 422.5C763.3 425.3 790.7 443.7 818 447.5C845.3 451.3 872.7 440.7 886.3 435.3L900 430L900 601L886.3 601C872.7 601 845.3 601 818 601C790.7 601 763.3 601 736.2 601C709 601 682 601 654.8 601C627.7 601 600.3 601 573 601C545.7 601 518.3 601 491 601C463.7 601 436.3 601 409 601C381.7 601 354.3 601 327 601C299.7 601 272.3 601 245.2 601C218 601 191 601 163.8 601C136.7 601 109.3 601 82 601C54.7 601 27.3 601 13.7 601L0 601Z" fill="#0096b4"></path><path d="M0 468L13.7 469.2C27.3 470.3 54.7 472.7 82 480C109.3 487.3 136.7 499.7 163.8 495.7C191 491.7 218 471.3 245.2 462.3C272.3 453.3 299.7 455.7 327 457.7C354.3 459.7 381.7 461.3 409 464.8C436.3 468.3 463.7 473.7 491 476.5C518.3 479.3 545.7 479.7 573 479.5C600.3 479.3 627.7 478.7 654.8 477.2C682 475.7 709 473.3 736.2 478.7C763.3 484 790.7 497 818 499.3C845.3 501.7 872.7 493.3 886.3 489.2L900 485L900 601L886.3 601C872.7 601 845.3 601 818 601C790.7 601 763.3 601 736.2 601C709 601 682 601 654.8 601C627.7 601 600.3 601 573 601C545.7 601 518.3 601 491 601C463.7 601 436.3 601 409 601C381.7 601 354.3 601 327 601C299.7 601 272.3 601 245.2 601C218 601 191 601 163.8 601C136.7 601 109.3 601 82 601C54.7 601 27.3 601 13.7 601L0 601Z" fill="#00b3c8"></path><path d="M0 524L13.7 522.2C27.3 520.3 54.7 516.7 82 516.8C109.3 517 136.7 521 163.8 516.8C191 512.7 218 500.3 245.2 494.3C272.3 488.3 299.7 488.7 327 492C354.3 495.3 381.7 501.7 409 510.2C436.3 518.7 463.7 529.3 491 535.5C518.3 541.7 545.7 543.3 573 541.5C600.3 539.7 627.7 534.3 654.8 530.2C682 526 709 523 736.2 519.2C763.3 515.3 790.7 510.7 818 510.5C845.3 510.3 872.7 514.7 886.3 516.8L900 519L900 601L886.3 601C872.7 601 845.3 601 818 601C790.7 601 763.3 601 736.2 601C709 601 682 601 654.8 601C627.7 601 600.3 601 573 601C545.7 601 518.3 601 491 601C463.7 601 436.3 601 409 601C381.7 601 354.3 601 327 601C299.7 601 272.3 601 245.2 601C218 601 191 601 163.8 601C136.7 601 109.3 601 82 601C54.7 601 27.3 601 13.7 601L0 601Z" fill="#00d1d6"></path><path d="M0 571L13.7 563.7C27.3 556.3 54.7 541.7 82 538.8C109.3 536 136.7 545 163.8 545.8C191 546.7 218 539.3 245.2 542.7C272.3 546 299.7 560 327 563.5C354.3 567 381.7 560 409 556.7C436.3 553.3 463.7 553.7 491 552.2C518.3 550.7 545.7 547.3 573 548C600.3 548.7 627.7 553.3 654.8 552.8C682 552.3 709 546.7 736.2 542.3C763.3 538 790.7 535 818 533.8C845.3 532.7 872.7 533.3 886.3 533.7L900 534L900 601L886.3 601C872.7 601 845.3 601 818 601C790.7 601 763.3 601 736.2 601C709 601 682 601 654.8 601C627.7 601 600.3 601 573 601C545.7 601 518.3 601 491 601C463.7 601 436.3 601 409 601C381.7 601 354.3 601 327 601C299.7 601 272.3 601 245.2 601C218 601 191 601 163.8 601C136.7 601 109.3 601 82 601C54.7 601 27.3 601 13.7 601L0 601Z" fill="#12efde"></path></svg>